TITLE ""
FILE "Disc6Track17.mp3" MP3
  TRACK 01 AUDIO
    TITLE "Disc6Track17_01"
    INDEX 01 00:00:00
  TRACK 02 AUDIO
    TITLE "Disc6Track17_02"
    INDEX 01 00:00:71
  TRACK 03 AUDIO
    TITLE "Disc6Track17_03"
    INDEX 01 00:02:44
  TRACK 04 AUDIO
    TITLE "Disc6Track17_04"
    INDEX 01 00:03:54
  TRACK 05 AUDIO
    TITLE "Disc6Track17_05"
    INDEX 01 00:07:46
  TRACK 06 AUDIO
    TITLE "Disc6Track17_06"
    INDEX 01 00:07:75
  TRACK 07 AUDIO
    TITLE "Disc6Track17_07"
    INDEX 01 00:10:54
  TRACK 08 AUDIO
    TITLE "Disc6Track17_08"
    INDEX 01 00:13:54
  TRACK 09 AUDIO
    TITLE "Disc6Track17_09"
    INDEX 01 00:16:31
  TRACK 10 AUDIO
    TITLE "Disc6Track17_10"
    INDEX 01 00:18:08
  TRACK 11 AUDIO
    TITLE "Disc6Track17_11"
    INDEX 01 00:18:40
  TRACK 12 AUDIO
    TITLE "Disc6Track17_12"
    INDEX 01 00:19:68
  TRACK 13 AUDIO
    TITLE "Disc6Track17_13"
    INDEX 01 00:21:40
  TRACK 14 AUDIO
    TITLE "Disc6Track17_14"
    INDEX 01 00:22:69
  TRACK 15 AUDIO
    TITLE "Disc6Track17_15"
    INDEX 01 00:28:05
  TRACK 16 AUDIO
    TITLE "Disc6Track17_16"
    INDEX 01 00:28:36
  TRACK 17 AUDIO
    TITLE "Disc6Track17_17"
    INDEX 01 00:29:61
  TRACK 18 AUDIO
    TITLE "Disc6Track17_18"
    INDEX 01 00:30:72
  TRACK 19 AUDIO
    TITLE "Disc6Track17_19"
    INDEX 01 00:32:18
  TRACK 20 AUDIO
    TITLE "Disc6Track17_20"
    INDEX 01 00:34:13
  TRACK 21 AUDIO
    TITLE "Disc6Track17_21"
    INDEX 01 00:34:44
  TRACK 22 AUDIO
    TITLE "Disc6Track17_22"
    INDEX 01 00:36:08
  TRACK 23 AUDIO
    TITLE "Disc6Track17_23"
    INDEX 01 00:37:37
  TRACK 24 AUDIO
    TITLE "Disc6Track17_24"
    INDEX 01 00:38:74
  TRACK 25 AUDIO
    TITLE "Disc6Track17_25"
    INDEX 01 00:41:03
  TRACK 26 AUDIO
    TITLE "Disc6Track17_26"
    INDEX 01 00:41:33
  TRACK 27 AUDIO
    TITLE "Disc6Track17_27"
    INDEX 01 00:42:64
  TRACK 28 AUDIO
    TITLE "Disc6Track17_28"
    INDEX 01 00:44:33
  TRACK 29 AUDIO
    TITLE "Disc6Track17_29"
    INDEX 01 00:45:66
  TRACK 30 AUDIO
    TITLE "Disc6Track17_30"
    INDEX 01 00:46:24
  TRACK 31 AUDIO
    TITLE "Disc6Track17_31"
    INDEX 01 00:47:37
  TRACK 32 AUDIO
    TITLE "Disc6Track17_32"
    INDEX 01 00:48:58
  TRACK 33 AUDIO
    TITLE "Disc6Track17_33"
    INDEX 01 00:49:71
  TRACK 34 AUDIO
    TITLE "Disc6Track17_34"
    INDEX 01 00:52:09
  TRACK 35 AUDIO
    TITLE "Disc6Track17_35"
    INDEX 01 00:52:38
  TRACK 36 AUDIO
    TITLE "Disc6Track17_36"
    INDEX 01 00:53:57
  TRACK 37 AUDIO
    TITLE "Disc6Track17_37"
    INDEX 01 00:56:38
  TRACK 38 AUDIO
    TITLE "Disc6Track17_38"
    INDEX 01 00:57:55
  TRACK 39 AUDIO
    TITLE "Disc6Track17_39"
    INDEX 01 01:02:37
  TRACK 40 AUDIO
    TITLE "Disc6Track17_40"
    INDEX 01 01:02:66
  TRACK 41 AUDIO
    TITLE "Disc6Track17_41"
    INDEX 01 01:04:10
  TRACK 42 AUDIO
    TITLE "Disc6Track17_42"
    INDEX 01 01:05:14
  TRACK 43 AUDIO
    TITLE "Disc6Track17_43"
    INDEX 01 01:06:29
  TRACK 44 AUDIO
    TITLE "Disc6Track17_44"
    INDEX 01 01:08:41
  TRACK 45 AUDIO
    TITLE "Disc6Track17_45"
    INDEX 01 01:09:02
  TRACK 46 AUDIO
    TITLE "Disc6Track17_46"
    INDEX 01 01:10:32
  TRACK 47 AUDIO
    TITLE "Disc6Track17_47"
    INDEX 01 01:12:20
  TRACK 48 AUDIO
    TITLE "Disc6Track17_48"
    INDEX 01 01:13:46
  TRACK 49 AUDIO
    TITLE "Disc6Track17_49"
    INDEX 01 01:17:05
  TRACK 50 AUDIO
    TITLE "Disc6Track17_50"
    INDEX 01 01:17:34
  TRACK 51 AUDIO
    TITLE "Disc6Track17_51"
    INDEX 01 01:18:73
  TRACK 52 AUDIO
    TITLE "Disc6Track17_52"
    INDEX 01 01:20:05
  TRACK 53 AUDIO
    TITLE "Disc6Track17_53"
    INDEX 01 01:21:40
  TRACK 54 AUDIO
    TITLE "Disc6Track17_54"
    INDEX 01 01:23:53
